<svg width="8" height="5" viewBox="0 0 8 5" fill="none" xmlns="http://www.w3.org/2000/svg">
<path d="M4.3057 0.299975L6.9057 2.89998C7.22237 3.21664 7.29303 3.57898 7.1177 3.98698C6.94303 4.39564 6.6307 4.59998 6.1807 4.59998L1.0307 4.59998C0.580701 4.59998 0.268368 4.39564 0.0937009 3.98698C-0.0816325 3.57898 -0.0109657 3.21664 0.305701 2.89998L2.9057 0.299975C3.0057 0.199975 3.11403 0.124976 3.2307 0.0749756C3.34737 0.0249754 3.47237 -2.51224e-05 3.6057 -2.51108e-05C3.73903 -2.50991e-05 3.86403 0.0249755 3.9807 0.0749757C4.09737 0.124976 4.2057 0.199975 4.3057 0.299975Z" fill="#696767" fill-opacity="0.64"/>
</svg>
