<svg width="18" height="18" viewBox="0 0 18 18" fill="none" xmlns="http://www.w3.org/2000/svg">
<g clip-path="url(#clip0_228_750)">
<path d="M15.364 2.63601C13.6641 0.936115 11.404 0 9 0C6.59602 0 4.33591 0.936115 2.63604 2.63601C0.936172 4.33588 0 6.59605 0 9C0 11.4039 0.936172 13.6641 2.63604 15.3639C4.33591 17.0638 6.59605 18 9 18C11.4039 18 13.6641 17.0638 15.364 15.3639C17.0638 13.6641 18 11.404 18 9C18 6.59602 17.0639 4.33588 15.364 2.63601ZM9.22249 3.05609L11.8519 2.28833L14.4869 4.20963L14.569 6.9389L11.9666 8.084L9.22249 6.09027V3.05609ZM5.82855 8.48624L6.86241 11.6681L5.15618 13.4748L2.51266 12.2214L1.80369 9.49041L3.25874 7.35554L5.82855 8.48624ZM3.42573 6.97391L3.51066 4.1513L6.13855 2.28557L8.80584 3.0643V6.06973L6.00153 8.10719L3.42573 6.97391ZM7.03909 12.0879H11.0013L11.0262 12.0114L12.6595 13.7409L11.3083 15.8965H6.71982L5.41225 13.8105L7.03909 12.0879ZM12.9476 13.439L11.1729 11.5599L12.1857 8.44271L14.7186 7.32829L16.2224 9.5349L15.4684 12.2437L12.9476 13.439ZM15.9982 4.32917L14.6499 3.81282L11.9992 1.88004L11.1835 0.871188C13.1759 1.40683 14.8784 2.65701 15.9982 4.32917ZM6.8166 0.871103L6.01563 1.8618L3.17606 3.87784L2.00325 4.32698C3.12301 2.65584 4.82503 1.40657 6.8166 0.871103ZM0.59946 8.48666L1.4534 9.79941L2.15274 12.4932L2.09133 13.8014C1.14135 12.4387 0.583349 10.7834 0.583349 9C0.583349 8.82755 0.589203 8.65658 0.59946 8.48666ZM5.42177 16.617L6.98098 16.3132H11.0472L12.5865 16.6131C11.4979 17.128 10.2821 17.4167 9 17.4167C7.72115 17.4167 6.50831 17.1295 5.42177 16.617ZM15.9351 13.7634L15.8691 12.358L16.6104 9.69491L17.4002 8.48078C17.4107 8.65258 17.4167 8.82559 17.4167 8.99997C17.4167 10.7669 16.869 12.408 15.9351 13.7634Z" fill="#90909C"/>
</g>
<defs>
<clipPath id="clip0_228_750">
<rect width="18" height="18" fill="white"/>
</clipPath>
</defs>
</svg>
