<svg width="18" height="18" viewBox="0 0 18 18" fill="none" xmlns="http://www.w3.org/2000/svg">
<path fill-rule="evenodd" clip-rule="evenodd" d="M10.9096 8.30983H13.4006C13.7783 8.30983 14.0751 7.99755 14.0751 7.62099C14.0751 7.23523 13.7783 6.93214 13.4006 6.93214H10.9096C10.5319 6.93214 10.2351 7.23523 10.2351 7.62099C10.2351 7.99755 10.5319 8.30983 10.9096 8.30983ZM16.3589 3.53474C16.9075 3.53474 17.2672 3.72762 17.6269 4.15011C17.9866 4.5726 18.0496 5.17878 17.9687 5.72894L17.1143 11.754C16.9525 12.9122 15.9812 13.7654 14.8391 13.7654H5.02775C3.83168 13.7654 2.84245 12.8295 2.74353 11.6172L1.91617 1.60506L0.558233 1.36626C0.198513 1.30197 -0.0532905 0.943773 0.0096604 0.57639C0.0726113 0.200741 0.423338 -0.0481615 0.792051 0.00786447L2.93688 0.337591C3.24264 0.393617 3.46747 0.649867 3.49444 0.962142L3.66531 3.01949C3.69229 3.31431 3.92611 3.53474 4.21388 3.53474H16.3589ZM4.88395 15.2171C4.12854 15.2171 3.51701 15.8417 3.51701 16.6132C3.51701 17.3755 4.12854 18 4.88395 18C5.63037 18 6.24189 17.3755 6.24189 16.6132C6.24189 15.8417 5.63037 15.2171 4.88395 15.2171ZM15.0011 15.2171C14.2457 15.2171 13.6341 15.8417 13.6341 16.6132C13.6341 17.3755 14.2457 18 15.0011 18C15.7475 18 16.359 17.3755 16.359 16.6132C16.359 15.8417 15.7475 15.2171 15.0011 15.2171Z" fill="#90909C"/>
</svg>
