<svg width="18" height="18" viewBox="0 0 18 18" fill="none" xmlns="http://www.w3.org/2000/svg">
<path fill-rule="evenodd" clip-rule="evenodd" d="M2.28603 0H5.32806C6.59708 0 7.61409 1.03501 7.61409 2.30493V5.37306C7.61409 6.65108 6.59708 7.67709 5.32806 7.67709H2.28603C1.02601 7.67709 0 6.65108 0 5.37306V2.30493C0 1.03501 1.02601 0 2.28603 0ZM2.28603 10.3229H5.32806C6.59708 10.3229 7.61409 11.3498 7.61409 12.6278V15.696C7.61409 16.965 6.59708 18 5.32806 18H2.28603C1.02601 18 0 16.965 0 15.696V12.6278C0 11.3498 1.02601 10.3229 2.28603 10.3229ZM15.7138 0H12.6718C11.4028 0 10.3857 1.03501 10.3857 2.30493V5.37306C10.3857 6.65108 11.4028 7.67709 12.6718 7.67709H15.7138C16.9738 7.67709 17.9998 6.65108 17.9998 5.37306V2.30493C17.9998 1.03501 16.9738 0 15.7138 0ZM12.6718 10.3229H15.7138C16.9738 10.3229 17.9998 11.3498 17.9998 12.6278V15.696C17.9998 16.965 16.9738 18 15.7138 18H12.6718C11.4028 18 10.3857 16.965 10.3857 15.696V12.6278C10.3857 11.3498 11.4028 10.3229 12.6718 10.3229Z" fill="#90909C"/>
</svg>
