<svg width="18" height="18" viewBox="0 0 18 18" fill="none" xmlns="http://www.w3.org/2000/svg">
<path fill-rule="evenodd" clip-rule="evenodd" d="M4.797 0H13.2021C16.263 0 17.991 1.7361 18 4.797V13.203C18 16.263 16.263 18 13.2021 18H4.797C1.7361 18 0 16.263 0 13.203V4.797C0 1.7361 1.7361 0 4.797 0ZM9.04385 14.274C9.43175 14.274 9.75485 13.986 9.79085 13.599V4.42799C9.82685 4.14899 9.69275 3.86909 9.44975 3.71699C9.19685 3.56399 8.89085 3.56399 8.64875 3.71699C8.40485 3.86909 8.27075 4.14899 8.29685 4.42799V13.599C8.34275 13.986 8.66585 14.274 9.04385 14.274ZM13.1847 14.2739C13.5627 14.2739 13.8858 13.9859 13.9317 13.5989V10.6469C13.9578 10.358 13.8237 10.0889 13.5798 9.93595C13.3377 9.78295 13.0317 9.78295 12.7797 9.93595C12.5358 10.0889 12.4017 10.358 12.4377 10.6469V13.5989C12.4737 13.9859 12.7968 14.2739 13.1847 14.2739ZM5.59685 13.599C5.56085 13.986 5.23775 14.274 4.84985 14.274C4.46285 14.274 4.13885 13.986 4.10375 13.599V7.37996C4.07675 7.10006 4.21085 6.82196 4.45475 6.66896C4.69685 6.51596 5.00375 6.51596 5.24675 6.66896C5.48885 6.82196 5.62475 7.10006 5.59685 7.37996V13.599Z" fill="#90909C"/>
</svg>
