<svg width="6" height="9" viewBox="0 0 6 9" fill="none" xmlns="http://www.w3.org/2000/svg">
<path d="M2.09927 8.16383L0.220874 6.28543C-0.00790501 6.05665 -0.0589588 5.79488 0.0677125 5.50012C0.193902 5.20487 0.419551 5.05725 0.744657 5.05725H4.46532C4.79043 5.05725 5.01608 5.20487 5.14227 5.50012C5.26894 5.79488 5.21789 6.05665 4.98911 6.28543L3.11071 8.16383C3.03847 8.23607 2.9602 8.29026 2.87591 8.32638C2.79163 8.3625 2.70132 8.38057 2.60499 8.38057C2.50866 8.38057 2.41836 8.3625 2.33407 8.32638C2.24978 8.29026 2.17152 8.23607 2.09927 8.16383Z" fill="#696767" fill-opacity="0.64"/>
<path d="M3.11069 0.216787L4.98909 2.09518C5.21787 2.32396 5.26892 2.58573 5.14225 2.8805C5.01606 3.17574 4.79041 3.32336 4.4653 3.32336L0.744636 3.32336C0.419529 3.32336 0.193881 3.17574 0.0676914 2.8805C-0.0589799 2.58573 -0.0079259 2.32396 0.220853 2.09518L2.09925 0.216787C2.17149 0.144541 2.24976 0.090357 2.33405 0.054234C2.41833 0.018111 2.50864 4.88781e-05 2.60497 4.88865e-05C2.7013 4.88949e-05 2.79161 0.018111 2.87589 0.0542341C2.96018 0.0903571 3.03845 0.144541 3.11069 0.216787Z" fill="#696767" fill-opacity="0.64"/>
</svg>
