<svg width="20" height="20" viewBox="0 0 20 20" fill="none" xmlns="http://www.w3.org/2000/svg">
<g clip-path="url(#clip0_226_268)">
<path d="M2.25 18.75C2.25 19.4414 2.80898 20 3.5 20H9.75V11.25H2.25V18.75ZM19.75 5H18.1039C18.5711 4.10469 18.6902 3.02539 18.1023 1.82031C17.5391 0.663672 16.3359 -0.000608956 15.043 4.18888e-07C13.4102 0.000609794 12.3555 0.832813 11 2.66797C9.64453 0.832813 8.58984 0.000609794 6.95703 4.18888e-07C5.66406 -0.000608956 4.46172 0.663672 3.89766 1.82031C3.30977 3.02539 3.42891 4.10547 3.89648 5H2.25C1.55977 5 1 5.55977 1 6.25V8.75C1 9.4375 1.5625 9.99883 2.21484 9.99883H19.7148C20.4023 9.99883 20.9648 9.4375 20.9648 8.75V6.25C21 5.55859 20.4414 5 19.75 5ZM7.01172 5C6.14883 5 5.44922 4.30039 5.44922 3.4375C5.44922 2.57461 6.14883 1.875 7.01172 1.875C7.78906 1.875 8.36328 2.00391 10.375 5H7.01172ZM14.9883 5H11.625C13.6367 2.00391 14.2105 1.875 14.9879 1.875C15.8508 1.875 16.5504 2.57461 16.5504 3.4375C16.5504 4.30039 15.8516 5 14.9883 5ZM12.25 20H18.5C19.191 20 19.75 19.4414 19.75 18.75L19.75 11.25H12.2852L12.25 20Z" fill="#464141"/>
</g>
<defs>
<clipPath id="clip0_226_268">
<rect width="20" height="20" fill="white"/>
</clipPath>
</defs>
</svg>
