<svg width="100%" height="100%" viewBox="0 0 13 12" fill="none" xmlns="http://www.w3.org/2000/svg">
<path d="M0.295676 6.70998L5.29567 11.71C5.39078 11.801 5.50292 11.8724 5.62567 11.92C5.86913 12.02 6.14221 12.02 6.38567 11.92C6.50843 11.8724 6.62057 11.801 6.71567 11.71L11.7157 6.70998C11.8089 6.61674 11.8829 6.50605 11.9333 6.38423C11.9838 6.26241 12.0098 6.13184 12.0098 5.99998C12.0098 5.73368 11.904 5.47828 11.7157 5.28998C11.5274 5.10168 11.272 4.99589 11.0057 4.99589C10.7394 4.99589 10.484 5.10168 10.2957 5.28998L7.00567 8.58998L7.00567 0.999981C7.00567 0.734765 6.90032 0.48041 6.71278 0.292874C6.52525 0.105338 6.27089 -1.86215e-05 6.00567 -1.86447e-05C5.74046 -1.86679e-05 5.4861 0.105338 5.29857 0.292874C5.11103 0.48041 5.00567 0.734764 5.00567 0.999981L5.00567 8.58998L1.71567 5.28998C1.62271 5.19625 1.51211 5.12186 1.39025 5.07109C1.26839 5.02032 1.13769 4.99418 1.00567 4.99418C0.873664 4.99418 0.742958 5.02032 0.621098 5.07109C0.499239 5.12186 0.388639 5.19625 0.295676 5.28998C0.201948 5.38294 0.127552 5.49354 0.0767828 5.6154C0.0260139 5.73726 -0.000123442 5.86797 -0.000123454 5.99998C-0.000123465 6.13199 0.0260139 6.2627 0.0767827 6.38456C0.127552 6.50642 0.201948 6.61702 0.295676 6.70998Z" fill="#AA2D1C"/>
</svg>
