<svg width="18" height="18" viewBox="0 0 18 18" fill="none" xmlns="http://www.w3.org/2000/svg">
<path d="M13.1343 3.18895C13.1337 3.16973 13.1326 3.15061 13.1305 3.13163C13.1297 3.12433 13.1284 3.11711 13.1274 3.1098C13.1256 3.09736 13.1237 3.08497 13.1213 3.07267C13.1194 3.06309 13.1175 3.05355 13.1153 3.04407C13.1127 3.03313 13.1096 3.02228 13.1065 3.01149C13.1017 2.99484 13.0965 2.97843 13.0905 2.96221C13.0884 2.95616 13.0861 2.95006 13.0837 2.94411C13.0681 2.90412 13.049 2.86573 13.0266 2.82914C13.0257 2.82774 13.0249 2.82633 13.024 2.82493C12.9316 2.67569 12.7865 2.5582 12.605 2.50534C12.2267 2.39517 11.8319 2.60288 11.7049 2.97141C11.701 2.98273 11.6965 2.99372 11.6931 3.00544C11.5796 3.39541 11.8033 3.80488 12.1932 3.91844C12.5832 4.03201 12.9915 3.80721 13.1051 3.41724C13.1115 3.3957 13.1164 3.37406 13.1207 3.35242C13.1218 3.34705 13.1227 3.34158 13.1238 3.33616C13.1274 3.315 13.1305 3.29385 13.1323 3.27284C13.1325 3.26984 13.1325 3.26693 13.1328 3.26398C13.1341 3.24573 13.1346 3.22763 13.1345 3.20952C13.1346 3.20265 13.1345 3.19582 13.1343 3.18895Z" fill="#90909C"/>
<path d="M11.2759 10.7792C11.249 10.7751 11.2217 10.7719 11.1939 10.7719C11.1536 10.7719 11.1143 10.7767 11.0764 10.7851L11.0202 10.7289L9.71902 9.42601L9.69873 9.40568C9.82338 9.16297 9.8349 8.87746 9.7333 8.6272C9.72666 8.61035 9.71873 8.59394 9.71093 8.57753L9.7318 8.55672L11.034 7.25616L11.0705 7.21971C11.2354 7.24648 11.4105 7.19744 11.5381 7.07042C11.732 6.87655 11.7468 6.57188 11.5841 6.36034C11.5703 6.34199 11.5549 6.32394 11.5381 6.30719C11.3278 6.09623 10.9858 6.09623 10.7752 6.30685C10.7394 6.34262 10.7104 6.38188 10.6866 6.42375C10.6261 6.53194 10.6058 6.65654 10.6251 6.77586L10.5895 6.81159L9.28297 8.11631L9.26525 8.13402C9.00482 8.01175 8.69966 8.01606 8.44286 8.14821L8.4355 8.14085L7.13461 6.83826L7.10663 6.81028C7.13567 6.66487 7.10489 6.51006 7.01359 6.38536C6.99747 6.36344 6.98043 6.34189 6.96078 6.32224C6.75016 6.11162 6.40811 6.11099 6.19749 6.32161C6.16724 6.35187 6.14207 6.38474 6.12053 6.4192C5.99143 6.62759 6.0165 6.90453 6.19716 7.08519C6.32989 7.21792 6.51514 7.2671 6.6867 7.23205L6.71376 7.25911L8.01915 8.5662L8.02724 8.57434C7.90568 8.82649 7.90428 9.12172 8.02239 9.37509L8.00569 9.39174L6.69052 10.7051L6.64947 10.7462C6.64018 10.7452 6.63088 10.7436 6.62154 10.7431C6.47467 10.7361 6.32524 10.7876 6.21289 10.9C6.05929 11.0529 6.01771 11.2755 6.0879 11.4668C6.11365 11.5383 6.1549 11.6053 6.21221 11.6626C6.42312 11.8735 6.76454 11.8735 6.97545 11.6632C7.11079 11.5278 7.15901 11.3387 7.12028 11.1646L7.1515 11.1333L8.4461 9.84052L8.46532 9.82135C8.7198 9.94339 9.01794 9.94343 9.27232 9.82111L9.29352 9.84236L10.5941 11.1446L10.6629 11.2134C10.6571 11.2452 10.6536 11.2777 10.6536 11.3112C10.6536 11.3541 10.6591 11.395 10.6682 11.4346C10.7242 11.6733 10.9378 11.8514 11.1933 11.8514C11.4088 11.8514 11.5955 11.7248 11.6816 11.5412C11.7148 11.4719 11.733 11.3941 11.733 11.3121C11.733 11.2301 11.7148 11.1523 11.6816 11.0826C11.6066 10.9231 11.4558 10.8069 11.2759 10.7792Z" fill="#90909C"/>
<path d="M9 0C4.03735 0 0 4.0374 0 9C0 13.9626 4.03735 18 9 18C13.9626 18 18 13.9626 18 9C18 4.0374 13.9626 0 9 0ZM17.4191 9C17.4191 9.71502 17.3293 10.4094 17.1607 11.0726L13.8842 10.1947C13.9779 9.81164 14.028 9.41156 14.028 8.99995C14.028 8.58839 13.978 8.18831 13.8842 7.80521L17.1607 6.9273C17.3292 7.59067 17.4191 8.28498 17.4191 9ZM0.580886 9C0.580886 8.28498 0.670777 7.59063 0.839331 6.92735L4.11577 7.80526C4.02205 8.18841 3.97195 8.58844 3.97195 9.00005C3.97195 9.41165 4.02205 9.81174 4.11577 10.1948L0.839331 11.0728C0.670777 10.4094 0.580886 9.71502 0.580886 9ZM13.002 7.87947C13.0026 7.88146 13.0031 7.88344 13.0037 7.88543C13.0171 7.93364 13.0298 7.98224 13.0415 8.03113C13.1161 8.34224 13.1567 8.66638 13.1567 9.00005C13.1567 9.33377 13.1161 9.65795 13.0415 9.96906C13.0298 10.0179 13.0172 10.0663 13.0038 10.1143C13.0031 10.1167 13.0025 10.119 13.0018 10.1213C12.9474 10.3155 12.8792 10.504 12.7983 10.6856L12.7982 10.6857C12.7371 10.8227 12.6689 10.9558 12.5939 11.0846C12.5937 11.0849 12.5936 11.0852 12.5934 11.0855C12.3931 11.4293 12.1449 11.7418 11.858 12.0141C11.389 12.4591 10.8169 12.796 10.1812 12.9848C10.0967 13.01 10.011 13.0321 9.92438 13.052C9.91214 13.0547 9.89994 13.0577 9.88759 13.0605C9.8508 13.0685 9.81382 13.0759 9.77664 13.083C9.75268 13.0875 9.72862 13.0918 9.70452 13.096C9.67228 13.1015 9.64004 13.1072 9.60756 13.112C9.55368 13.12 9.49946 13.127 9.44491 13.1328C9.42298 13.1351 9.40081 13.1368 9.37874 13.1389C9.3357 13.1428 9.29262 13.1462 9.2492 13.1487C9.22901 13.1499 9.20883 13.1512 9.18859 13.1521C9.126 13.1549 9.06322 13.1569 9 13.1569C8.93673 13.1569 8.87395 13.1549 8.81136 13.1521C8.79112 13.1512 8.77099 13.1499 8.75085 13.1487C8.70748 13.1462 8.66425 13.1428 8.62126 13.1389C8.59919 13.1368 8.57702 13.1351 8.55504 13.1328C8.50053 13.127 8.44632 13.12 8.39239 13.112C8.35991 13.1072 8.32767 13.1015 8.29539 13.0959C8.27133 13.0918 8.24732 13.0875 8.2234 13.083C8.18618 13.0759 8.149 13.0685 8.11216 13.0604C8.10016 13.0578 8.08835 13.0549 8.07644 13.0521C7.98945 13.0322 7.90329 13.01 7.81843 12.9847C7.1828 12.7959 6.61072 12.4589 6.14165 12.0137C5.99832 11.8777 5.86467 11.7316 5.74181 11.5767C5.74167 11.5765 5.74147 11.5762 5.74133 11.576C5.61866 11.4212 5.5068 11.2574 5.40683 11.0859C5.40645 11.0852 5.40606 11.0845 5.40567 11.0838C5.33103 10.9556 5.26307 10.823 5.20222 10.6865C5.20202 10.6861 5.20178 10.6856 5.20159 10.6852C5.18131 10.6397 5.16185 10.5937 5.14316 10.5474C5.14306 10.5471 5.14297 10.5468 5.14282 10.5465C5.08725 10.4083 5.03894 10.2665 4.99823 10.1214C4.99755 10.119 4.99687 10.1167 4.9962 10.1143C4.98284 10.0663 4.9702 10.0179 4.95854 9.96911C4.88389 9.658 4.84333 9.33382 4.84333 9.0001C4.84333 8.66638 4.88394 8.34219 4.95854 8.03108C4.9702 7.98234 4.98279 7.93398 4.9962 7.88591C4.99687 7.88354 4.99755 7.88117 4.99823 7.87875C5.03889 7.73377 5.08715 7.59198 5.14272 7.45388C5.14287 7.45349 5.14302 7.4531 5.14316 7.45276C5.1618 7.40644 5.18126 7.3606 5.20149 7.31514C5.20173 7.31461 5.20198 7.31408 5.20222 7.3135C5.26297 7.17718 5.33093 7.04474 5.40548 6.9166C5.40596 6.91578 5.4064 6.91496 5.40688 6.91418C5.50675 6.74282 5.61852 6.57926 5.74104 6.4245C5.74133 6.42411 5.74167 6.42372 5.74196 6.42334C5.86477 6.26843 5.99832 6.12244 6.14156 5.98651C6.61096 5.54107 7.18352 5.20386 7.81974 5.01508C7.90372 4.99015 7.98892 4.96817 8.07499 4.94847C8.08752 4.94561 8.09997 4.94251 8.1125 4.9398C8.14915 4.93177 8.18608 4.92441 8.22306 4.91734C8.24722 4.91274 8.27147 4.90848 8.29572 4.90432C8.32787 4.89875 8.35991 4.89309 8.3923 4.8883C8.44622 4.88036 8.50049 4.87339 8.55509 4.86753C8.57702 4.86516 8.59909 4.86351 8.62112 4.86148C8.6642 4.85756 8.70738 4.85417 8.7508 4.85156C8.77094 4.85035 8.79107 4.84914 8.81131 4.84822C8.8739 4.84536 8.93668 4.84342 8.99995 4.84342C9.06322 4.84342 9.126 4.84541 9.18859 4.84822C9.20883 4.84914 9.22896 4.85035 9.2491 4.85156C9.29252 4.85412 9.33575 4.85756 9.37879 4.86148C9.40081 4.86351 9.42293 4.86521 9.44481 4.86753C9.49942 4.87339 9.55368 4.88036 9.60761 4.8883C9.63999 4.89309 9.67204 4.89875 9.70418 4.90432C9.72843 4.90848 9.75268 4.91274 9.77679 4.91734C9.81387 4.92441 9.85071 4.93177 9.8874 4.9398C9.89994 4.94256 9.91238 4.94561 9.92487 4.94847C10.0109 4.96817 10.0961 4.99019 10.1801 5.01508C10.8162 5.20381 11.3886 5.54087 11.8579 5.98617C12.0014 6.12234 12.1352 6.26858 12.2582 6.42377L12.2583 6.42382C12.3811 6.57887 12.4932 6.74287 12.5933 6.91462C12.5935 6.91506 12.5937 6.91549 12.594 6.91588C12.6689 7.0445 12.7371 7.17752 12.7981 7.31441C12.7981 7.31451 12.7982 7.31461 12.7982 7.31471C12.8186 7.3604 12.8382 7.40653 12.8569 7.4531C12.9127 7.59164 12.9612 7.73396 13.002 7.87947ZM12.4748 5.36927C11.899 4.81791 11.1926 4.40205 10.4074 4.17269L11.2853 0.89621C12.6532 1.28245 13.8804 2.00681 14.8715 2.97249L12.4748 5.36927ZM7.59261 4.17269C6.80735 4.402 6.10099 4.81796 5.52514 5.36932L3.12841 2.97259C4.11954 2.00686 5.34681 1.2825 6.7147 0.89621L7.59261 4.17269ZM5.52509 12.6306C6.10094 13.182 6.8073 13.598 7.59256 13.8273L6.71465 17.1038C5.34676 16.7175 4.1195 15.9931 3.12836 15.0274L5.52509 12.6306ZM10.4074 13.8273C11.1926 13.598 11.899 13.1821 12.4748 12.6307L14.8715 15.0275C13.8804 15.9932 12.6531 16.7175 11.2853 17.1038L10.4074 13.8273Z" fill="#90909C"/>
</svg>
