<svg width="51" height="50" viewBox="0 0 51 50" fill="none" xmlns="http://www.w3.org/2000/svg">
<path d="M49.3405 24.6841C49.3405 37.9434 38.5918 48.6923 25.3326 48.6923C12.0731 48.6923 1.32422 37.9434 1.32422 24.6841C1.32422 11.4247 12.0731 0.676025 25.3326 0.676025C38.5918 0.676025 49.3405 11.4247 49.3405 24.6841Z" fill="white"/>
<path d="M25.3321 35.3266L36.1805 27.4447L32.0367 14.6914H18.6271L14.4834 27.4447L25.3321 35.3266Z" fill="#0E0D10"/>
<path d="M18.5322 47.5464L25.3318 42.3779L32.5314 47.594C32.5314 47.594 28.9111 48.3915 25.53 48.3917C22.1492 48.392 18.5322 47.5464 18.5322 47.5464Z" fill="#0E0D10"/>
<path d="M1.32422 25.2869L8.17852 29.9154L5.54353 38.0252C5.54353 38.0252 3.26122 34.451 2.34463 31.6299C1.4283 28.8092 1.32422 25.2869 1.32422 25.2869Z" fill="#0E0D10"/>
<path d="M17.0795 2.52319L14.731 9.75079H7.13086C7.13086 9.75079 8.31387 7.68631 10.6903 5.65796C13.0668 3.6291 17.0795 2.52319 17.0795 2.52319Z" fill="#0E0D10"/>
<path d="M43.5331 9.75107H35.9334L33.585 2.52271C33.585 2.52271 36.537 3.15047 39.1318 5.03556C41.7261 6.9209 43.5331 9.75107 43.5331 9.75107Z" fill="#0E0D10"/>
<path d="M44.8336 37.1435L42.4854 29.9161L48.634 25.4487C48.634 25.4487 49.1786 28.9878 48.1844 32.0646C47.1904 35.1418 44.8336 37.1435 44.8336 37.1435Z" fill="#0E0D10"/>
<path d="M16.93 3.88119L16.9814 2.08008L12.0186 4.70311L6.85547 9.35399L8.86295 9.44382C8.86295 9.44382 10.1465 7.99336 12.3965 6.44214C14.6462 4.89066 16.93 3.88119 16.93 3.88119Z" fill="white"/>
<path d="M19.9894 16.6814H32.744L32.0956 14.7266H18.686L14.542 27.4799L16.1772 28.8273L19.9894 16.6814Z" fill="white"/>
<path d="M26.8906 43.5106L25.3318 42.3779L19.1836 46.8448L20.3811 48.1983L26.8906 43.5106Z" fill="white"/>
<path d="M3.33775 26.8148L1.68066 25.2175L2.39215 32.3311L5.23734 38.3775L6.02746 35.8725C6.02746 35.8725 5.00985 33.6999 4.17851 30.8998C3.34691 28.0999 3.33775 26.8148 3.33775 26.8148Z" fill="white"/>
<path d="M43.6018 31.296L47.6903 28.3851L48.8118 24.9348L42.6631 29.402L43.6018 31.296Z" fill="white"/>
<path d="M35.8422 3.99403L33.9863 2.52271L36.3351 9.75107H37.7127L35.8422 3.99403Z" fill="white"/>
<path d="M25.3329 1.35223C12.4676 1.35223 2.00093 11.8192 2.00093 24.6842C2.00093 37.5495 12.4676 48.016 25.3329 48.016C38.198 48.016 48.6647 37.5495 48.6647 24.6842C48.6647 11.8192 38.198 1.35223 25.3329 1.35223ZM25.3329 49.3682C11.722 49.3682 0.648438 38.2949 0.648438 24.6842C0.648438 11.0734 11.722 0 25.3329 0C38.9436 0 50.0169 11.0734 50.0169 24.6842C50.0169 38.2949 38.9436 49.3682 25.3329 49.3682Z" fill="#3D454E"/>
<path d="M15.2784 27.1861L25.3321 34.4908L35.3858 27.1861L31.5454 15.3671H19.1185L15.2784 27.1861ZM25.3321 36.1621L13.6885 27.7026L18.1358 14.0149H32.5279L36.9755 27.7026L25.3321 36.1621Z" fill="#3D454E"/>
<path d="M25.5426 30.7802L22.2215 28.3669C22.0704 28.2572 22.0368 28.046 22.1467 27.8948C22.2564 27.7442 22.4679 27.7106 22.619 27.82L25.5426 29.944L31.0831 25.9186L29.9555 22.4482C29.8975 22.2709 29.995 22.08 30.1726 22.0223C30.351 21.9645 30.5408 22.062 30.5986 22.2396L31.878 26.1769L25.5426 30.7802Z" fill="#3D454E"/>
<path d="M18.1474 48.2744C17.9385 48.2744 17.7321 48.1774 17.5998 47.9955C17.3804 47.6934 17.4474 47.2705 17.7494 47.0512L25.3317 41.5425L32.5291 46.7718C32.8311 46.9914 32.898 47.4143 32.6787 47.7163C32.4588 48.0184 32.0362 48.0853 31.7341 47.866L25.3317 43.2138L18.5444 48.1451C18.4245 48.2324 18.2853 48.2744 18.1474 48.2744Z" fill="#3D454E"/>
<path d="M25.3316 43.0541C24.9581 43.0541 24.6553 42.7516 24.6553 42.378V35.3265C24.6553 34.9529 24.9581 34.6504 25.3316 34.6504C25.705 34.6504 26.0078 34.9529 26.0078 35.3265V42.378C26.0078 42.7516 25.705 43.0541 25.3316 43.0541Z" fill="#3D454E"/>
<path d="M5.54404 38.7018C5.47457 38.7018 5.40434 38.6909 5.33487 38.6685C4.97989 38.5529 4.78548 38.1715 4.90075 37.8163L7.38409 30.1736L0.92625 25.482C0.623944 25.2624 0.55727 24.8395 0.77662 24.5375C0.996479 24.2357 1.41889 24.169 1.7212 24.3878L8.97374 29.6573L6.18708 38.2344C6.0942 38.5199 5.82904 38.7018 5.54404 38.7018Z" fill="#3D454E"/>
<path d="M8.17949 30.5919C7.9095 30.5919 7.65427 30.4288 7.54968 30.1618C7.41354 29.8142 7.5848 29.4221 7.9324 29.2857L14.2368 26.8148C14.5849 26.6787 14.9768 26.8497 15.1132 27.1978C15.2496 27.5454 15.0781 27.9378 14.7305 28.0739L8.42607 30.5451C8.34515 30.5766 8.26168 30.5919 8.17949 30.5919Z" fill="#3D454E"/>
<path d="M15.2228 10.4271H6.53354C6.16024 10.4271 5.85742 10.1245 5.85742 9.75094C5.85742 9.37763 6.16024 9.07482 6.53354 9.07482H14.2403L16.5809 1.87113C16.6967 1.51615 17.0779 1.32276 17.4331 1.43676C17.7881 1.55229 17.9825 1.93373 17.867 2.28897L15.2228 10.4271Z" fill="#3D454E"/>
<path d="M18.6272 15.3673C18.4272 15.3673 18.2292 15.2793 18.0958 15.1101L14.2 10.1699C13.9686 9.87671 14.019 9.45125 14.3122 9.22019C14.6056 8.98914 15.0308 9.03901 15.2618 9.33241L19.1575 14.2726C19.3888 14.5658 19.3387 14.991 19.0455 15.2223C18.9213 15.32 18.7737 15.3673 18.6272 15.3673Z" fill="#3D454E"/>
<path d="M44.1321 10.4276H35.4424L32.798 2.28897C32.6824 1.93373 32.8771 1.55229 33.2321 1.43676C33.5873 1.32276 33.969 1.51615 34.0843 1.87113L36.4249 9.07507H44.1321C44.5054 9.07507 44.8083 9.37789 44.8083 9.75119C44.8083 10.1247 44.5054 10.4276 44.1321 10.4276Z" fill="#3D454E"/>
<path d="M32.036 15.3671C31.8894 15.3671 31.7419 15.3198 31.6177 15.2221C31.3245 14.9905 31.2744 14.5655 31.5057 14.2724L35.4026 9.33244C35.6337 9.03879 36.0586 8.98917 36.3523 9.22048C36.6454 9.45179 36.6956 9.87674 36.4645 10.1696L32.5674 15.1098C32.434 15.2791 32.236 15.3671 32.036 15.3671Z" fill="#3D454E"/>
<path d="M45.1199 38.7019C44.8351 38.7019 44.57 38.5199 44.4771 38.2344L41.6904 29.6579L48.9417 24.3892C49.244 24.1701 49.6667 24.237 49.8863 24.5388C50.1059 24.8408 50.039 25.2638 49.7367 25.4834L43.2801 30.1744L45.7634 37.8163C45.8787 38.1716 45.6843 38.553 45.329 38.6685C45.2596 38.6909 45.1893 38.7019 45.1199 38.7019Z" fill="#3D454E"/>
<path d="M42.4847 30.5925C42.4028 30.5925 42.3191 30.5775 42.2381 30.5457L35.9335 28.074C35.5859 27.9379 35.4144 27.5455 35.5508 27.1979C35.6872 26.8503 36.0793 26.679 36.4272 26.8149L42.7318 29.2866C43.0794 29.423 43.2507 29.8151 43.1143 30.1627C43.0099 30.4296 42.7547 30.5925 42.4847 30.5925Z" fill="#3D454E"/>
</svg>
