<svg width="95" height="11" viewBox="0 0 95 11" fill="none" xmlns="http://www.w3.org/2000/svg">
<path d="M94.6647 5.36818C94.6647 2.70977 73.4736 0.554199 47.3322 0.554199C21.1912 0.554199 0 2.70977 0 5.36818C0 8.02685 21.1912 10.1822 47.3322 10.1822C73.4736 10.1822 94.6647 8.02685 94.6647 5.36818Z" fill="#19191B"/>
<path d="M47.3323 7.4194C30.9098 7.4194 17.5967 6.50102 17.5967 5.36814C17.5967 4.23551 30.9098 3.31714 47.3323 3.31714C63.7551 3.31714 77.0682 4.23551 77.0682 5.36814C77.0682 6.50102 63.7551 7.4194 47.3323 7.4194Z" fill="#0B0B0C"/>
<path d="M58.6098 5.36828C58.6098 4.7451 53.5607 4.23999 47.3321 4.23999C41.1038 4.23999 36.0547 4.7451 36.0547 5.36828C36.0547 5.99147 41.1038 6.49684 47.3321 6.49684C53.5607 6.49684 58.6098 5.99147 58.6098 5.36828Z" fill="#525C66"/>
</svg>
